<svg id="Layer_1" data-name="Layer 1" xmlns="http://www.w3.org/2000/svg" viewBox="0 0 150.12 150.12"><defs><style>.cls-1{fill:#f48221;}.cls-2{fill:#fff;}</style></defs><circle class="cls-1" cx="75.06" cy="75.06" r="75.06" transform="translate(-31.09 75.06) rotate(-45)"/><path class="cls-2" d="M75.44,39.46h29.43c5.09,0,7.53,2.4,7.54,7.43q0,29.55,0,59.12c0,4.92-2.43,7.41-7.29,7.42q-29.7,0-59.39,0c-4.74,0-7.25-2.49-7.26-7.18q0-29.82,0-59.65c0-4.72,2.49-7.12,7.28-7.13C55.64,39.44,65.54,39.46,75.44,39.46Zm26.36,63.45V50.06H49.08v6c1.75,1.71,5.33-1.41,5.48,2.79.07,1.83.48,4.19-.46,5.35S50.79,65,49,65.36v21.9c1.68,1.69,5.49-1.5,5.54,2.87,0,1.84.45,4.2-.5,5.35s-3.32.72-5,1v6.44ZM46.53,56.49c0-2.23.08-4.33,0-6.43-.08-1.76.48-2.53,2.39-2.53q26.54.07,53.06,0c1.9,0,2.41.74,2.41,2.52q-.06,26.39,0,52.79c0,1.76-.53,2.53-2.42,2.52q-26.52-.06-53,0c-1.92,0-2.47-.79-2.39-2.55.09-2.17,0-4.35,0-6.53h-5.7v9.07c0,4.59,1,5.65,5.57,5.66h58.09c4.41,0,5.53-1.1,5.53-5.43q0-29.18,0-58.36c0-4.22-1.15-5.38-5.31-5.38H70.49c-8.31,0-16.62,0-24.93,0-2.3,0-4.34.68-4.53,3.08-.32,3.82-.09,7.68-.09,11.58Zm-.22,31.14V65.11H41V87.63Zm5.75-28.54H41v3.38H52.06ZM40.94,93.73H52V90.32h-11Z"/><path class="cls-2" d="M75.48,58.07A18.38,18.38,0,1,1,57,76.45,18.47,18.47,0,0,1,75.48,58.07ZM66.07,76.48a9.37,9.37,0,1,0,9.34-9.42A9,9,0,0,0,66.07,76.48ZM64.93,63.76c1.66,2.82,3.07,3.81,5.44,2.09,1-.73,2.45-.88,3.77-1.32v-4.6Zm18.16,3.17,2.84-2.52a15,15,0,0,0-9.26-3.84v3.82ZM63.38,75.19l2.3-5.84-2.82-3.86L59,75.19Zm27.95,0a14.42,14.42,0,0,0-3.59-8.83l-3,2.31c.69,1.41,1.25,2.4,1.66,3.45s.67,2.11,1,3.07ZM66.12,84.23c-.63-1.3-1.19-2.29-1.6-3.33s-.67-2.13-1-3.1H58.88l4,9.41Zm18.79,0,3,3.23c1.44-3.53,2.63-6.44,4-9.75H87.49ZM64.54,89l9.61,4V88.49l-6.58-2.6Zm21.22.25-2.55-3.3L76.69,88.5v4.43Z"/></svg>