<svg id="Layer_1" data-name="Layer 1" xmlns="http://www.w3.org/2000/svg" viewBox="0 0 150.12 150.12"><defs><style>.cls-1{fill:#f48221;}</style></defs><path class="cls-1" d="M80.3,105.87H69.78c-.6,0-.65,0-.65.63V115c0,.57,0,.61.61.61H80.26c.69,0,.7,0,.7-.71v-8.32C81,105.9,80.93,105.87,80.3,105.87Z"/><path class="cls-1" d="M80.61,87.32H69.86c-.4,0-.55.15-.55.55,0,2.85,0,5.7,0,8.55,0,.57,0,.61.62.61h5.28c1.78,0,3.55,0,5.33,0,.44,0,.6-.15.6-.6,0-2.85,0-5.71,0-8.56C81.15,87.5,81,87.32,80.61,87.32Z"/><path class="cls-1" d="M59,68.73c-1.78,0-3.56,0-5.33,0H48.45c-.64,0-.67,0-.67.65q0,4.2,0,8.42c0,.58,0,.62.61.62H59c.55,0,.61-.06.61-.63,0-2.82,0-5.64,0-8.47C59.62,68.89,59.47,68.73,59,68.73Z"/><path class="cls-1" d="M58.66,105.8c-3.55,0-7.11,0-10.66,0-.45,0-.6.16-.6.6q0,4.26,0,8.52c0,.45.17.59.6.58,1.78,0,3.56,0,5.34,0s3.55,0,5.33,0c.42,0,.58-.14.57-.57,0-2.84,0-5.67,0-8.51C59.25,106,59.12,105.8,58.66,105.8Z"/><path class="cls-1" d="M69.83,68.74c-.56,0-.6.05-.6.62v8.42c0,.61,0,.65.62.65H80.42c.58,0,.63-.05.63-.6V69.36c0-.57,0-.62-.61-.62Z"/><path class="cls-1" d="M88.51,42.48a2,2,0,0,0,2.13-1.65,5.41,5.41,0,0,0,.12-1.39,2,2,0,0,0-1.8-2,2.06,2.06,0,0,0-2.32,1.69,5.92,5.92,0,0,0-.13.87,7.21,7.21,0,0,0,.08.75A2,2,0,0,0,88.51,42.48Z"/><path class="cls-1" d="M90.67,77.81c0,.57,0,.62.61.62h10.61c.44,0,.62-.13.61-.59,0-2.84,0-5.67,0-8.51,0-.49-.18-.61-.63-.61-1.76,0-3.52,0-5.29,0h0c-1.77,0-3.55,0-5.33,0-.45,0-.59.16-.59.61Q90.68,73.57,90.67,77.81Z"/><path class="cls-1" d="M58.81,87.28c-1.76,0-3.52,0-5.29,0s-3.55,0-5.32,0c-.44,0-.61.11-.61.58q0,4.28,0,8.55c0,.43.15.57.58.57q5.34,0,10.7,0c.44,0,.57-.16.57-.58,0-2.83,0-5.67,0-8.5C59.42,87.31,59.38,87.28,58.81,87.28Z"/><path class="cls-1" d="M102.26,87.33c-3.54,0-7.08,0-10.61,0-.56,0-.62.07-.62.63V114.9c0,.64,0,.67.66.67h10.47c.69,0,.7,0,.7-.71V88C102.86,87.39,102.81,87.33,102.26,87.33Z"/><path class="cls-1" d="M109.65,36.26c0-.29,0-.59,0-.89a2.94,2.94,0,0,0-2.23-2.78,4.92,4.92,0,0,0-1.21-.11h-63a3,3,0,0,0-3,3.06c0,.31,0,.62,0,.93v82.11a4.8,4.8,0,0,0,.13,1.2,3,3,0,0,0,3.15,2.14h62.31c.29,0,.59,0,.89,0a3,3,0,0,0,2.92-3.08V77.15h0Zm-8-1.41a1.39,1.39,0,0,1,.43,2q-3.66,6.6-7.34,13.19c-.94,1.68-1.87,3.37-2.81,5.06a1.51,1.51,0,0,1-1.46.93,1.34,1.34,0,0,1-1-2.08c.83-1.52,1.68-3,2.52-4.53l7.73-13.88A1.38,1.38,0,0,1,101.69,34.85ZM87,35a4.74,4.74,0,0,1,6.49,4.15,5.7,5.7,0,0,1-1.08,4.19,4.76,4.76,0,0,1-8.43-2c-.1-.43-.12-.89-.18-1.34A5.19,5.19,0,0,1,87,35ZM45,55V38.79c0-1.16.5-1.67,1.64-1.67H80.3c1.07,0,1.76.78,1.52,1.68a1.37,1.37,0,0,1-1.31,1c-.34,0-.68,0-1,0H47.79V59h54.3l.09-.39a1.38,1.38,0,0,1,1.36-1.07,1.31,1.31,0,0,1,1.27,1.11,9.77,9.77,0,0,1,0,1.95,1.28,1.28,0,0,1-1.3,1.12H46.78a2.5,2.5,0,0,1-1.12-.23A1.29,1.29,0,0,1,45,60.17C45,58.44,45,56.7,45,55ZM83.76,69.21q0,4.35,0,8.7a3,3,0,0,1-3.24,3.23H69.72A3,3,0,0,1,66.51,78q0-4.41,0-8.84A3,3,0,0,1,69.61,66q5.51,0,11,0A3,3,0,0,1,83.76,69.21ZM62,115a3.14,3.14,0,0,1-3.24,3.22c-1.81-.06-3.62,0-5.43,0H47.88a3.05,3.05,0,0,1-3.21-3.2v-8.65A3,3,0,0,1,48,103.1c3.55,0,7.11,0,10.66,0A3.19,3.19,0,0,1,62,106.44C61.89,109.29,61.9,112.15,62,115Zm.16-18.48a3,3,0,0,1-3,3.14c-1.86,0-3.71,0-5.57,0H48.15a3.07,3.07,0,0,1-3.29-3.31c0-2.85,0-5.71,0-8.56a3,3,0,0,1,3.25-3.25c3.58,0,7.17,0,10.75,0a3.18,3.18,0,0,1,3.29,3.33C62.08,90.75,62.13,93.63,62.13,96.52ZM62.31,78a3,3,0,0,1-3.09,3.09H53.7c-1.84,0-3.68,0-5.52,0A3,3,0,0,1,45,78c0-2.91,0-5.83,0-8.74a3,3,0,0,1,3.2-3.2q5.41,0,10.85,0a3,3,0,0,1,3.22,3.21C62.32,72.17,62.32,75.11,62.31,78Zm21.36,37.2a3,3,0,0,1-3.07,3H75c-1.84,0-3.68,0-5.52,0a3,3,0,0,1-3-3q0-4.48,0-9a3,3,0,0,1,3.07-3.08c3.71,0,7.42,0,11.13,0a3,3,0,0,1,3,3.06C83.69,109.23,83.68,112.24,83.67,115.24Zm.18-18.64a3,3,0,0,1-3.15,3.14H69.81a3,3,0,0,1-3.22-3.22q0-4.35,0-8.7a3,3,0,0,1,3.2-3.2H80.69a3,3,0,0,1,3.16,3.15C83.86,90.71,83.86,93.65,83.85,96.6ZM88,69.23A3,3,0,0,1,91.14,66c2.23,0,4.46,0,6.69,0,1.4,0,2.8,0,4.21,0a3,3,0,0,1,3.19,3.21q0,4.35,0,8.7a3,3,0,0,1-3.19,3.2c-1.82,0-3.65,0-5.47,0s-3.5-.06-5.24,0a3.2,3.2,0,0,1-3.39-3.37C88,74.94,88,72.08,88,69.23Zm14.47,49.05c-3.65,0-7.3,0-11,0a3,3,0,0,1-3.15-3.15V87.81a3,3,0,0,1,3.16-3.19q5.47,0,11,0a3,3,0,0,1,3.16,3.15v27.32A3,3,0,0,1,102.42,118.28Zm4.45-63.82a4.75,4.75,0,0,1-8.23-2.3,9.08,9.08,0,0,1-.15-1.2c.08-2.14.78-3.81,2.59-4.81A4.75,4.75,0,0,1,108.16,50,5.59,5.59,0,0,1,106.87,54.46Z"/><path class="cls-1" d="M75.06,0a75.06,75.06,0,1,0,75.06,75.06A75.07,75.07,0,0,0,75.06,0Zm31.51,124.63H43.47a5.69,5.69,0,0,1-5.76-4.34,7.27,7.27,0,0,1-.17-1.81q0-24.3,0-48.61V35.63a5.76,5.76,0,0,1,5.8-5.86h63.24a5.7,5.7,0,0,1,5.8,5.81v83.23A5.72,5.72,0,0,1,106.57,124.63Z"/><path class="cls-1" d="M105.46,50.39a2,2,0,0,0-1.74-2.1A2,2,0,0,0,101.35,50a4.5,4.5,0,0,0,0,1.79,1.87,1.87,0,0,0,1.92,1.59,2,2,0,0,0,2-1.54c.1-.35.14-.72.21-1.09h-.05C105.46,50.6,105.47,50.49,105.46,50.39Z"/></svg>