<svg id="Layer_1" data-name="Layer 1" xmlns="http://www.w3.org/2000/svg" viewBox="0 0 150.12 150.12"><defs><style>.cls-1{fill:#f48221;}</style></defs><path class="cls-1" d="M91.84,111c3,.73,5.89,1.56,8.75,2.57,2,.72,2.67.1,2.5-1.88,0-.5,0-1,0-1.52,0-4,0-4-3.76-5.32-.8-.28-1.61-.54-2.41-.8-3.59-1.17-3.57-1.16-4.92,2.23a18.81,18.81,0,0,1-1.25,2.5C90,110.09,90.37,110.61,91.84,111Z"/><path class="cls-1" d="M44.06,104.59a6.13,6.13,0,0,1-.72.25c-2.84.57-4.45,2-3.57,4.67,0,1.31.06,2.17,0,3-.11,1.29.32,1.76,1.59,1.28a61.6,61.6,0,0,1,10.23-3c1-.19,1.21-.67.94-1.63C50.76,102.81,50.21,102.5,44.06,104.59Z"/><path class="cls-1" d="M99.66,27.54a25.06,25.06,0,0,0-9.94,2.16c-8,3.74-16.36,6.63-24.65,9.65-3.52,1.29-6.42,3.17-8.32,6.65-2.51,4.62-5.4,9-8.14,13.53a4.55,4.55,0,0,0-.07,5q3.3,5.75,6.4,11.6c1,1.89,1.66,2.07,3.48.59C60.6,75,61,73.25,59.88,70.88c-.52-1.16-.88-2.39-1.36-3.57-1.65-4.05-1.19-5.25,2.78-6.81a9.74,9.74,0,0,0,5.37-4.35c1.89-3.34,3.83-3.88,7.28-2.36a16,16,0,0,0,9.94,1.12c1.21-.25,2.47-.28,3.3.77s.5,2.42.09,3.65a5.22,5.22,0,0,1-2.14,2.47,21.23,21.23,0,0,0-5.76,5.73c-2.65,4.28-6.78,6.19-11,8.18-3.15,1.48-6.27,3.11-8.23,6.2A5.81,5.81,0,0,0,63.85,91c4.17,1,7.51-1,10.48-3.4A59.89,59.89,0,0,1,91.26,77.35a29.14,29.14,0,0,0,6.3-3.25c4.82-3.32,7.48-8.21,9.6-13.49,2.71-6.77,5.23-13.64,9.14-19.88,1.55-2.48,1.31-4.57-.69-6.78C111.54,29.48,106.36,27.52,99.66,27.54Z"/><path class="cls-1" d="M75.06,0a75.06,75.06,0,1,0,75.06,75.06A75.07,75.07,0,0,0,75.06,0Zm45.07,43.76a80.3,80.3,0,0,0-7.91,17.36A33.85,33.85,0,0,1,90.93,82.9c-2.15.79-2.42,1.46-1.06,3.31a17,17,0,0,1,3.42,9.72,2.27,2.27,0,0,0,2,2.48c3.65.86,7,2.5,10.57,3.68a2.84,2.84,0,0,1,2.21,3.21c-.08,2,0,4.08,0,6.13h0c0,1.87,0,3.74,0,5.61,0,3-1.48,4-4.27,2.87a69.46,69.46,0,0,0-15.83-4.72c-16.47-2.69-32.65-2-48.29,4.48-3.64,1.5-4.79.68-4.81-3.27,0-3.57,0-7.15,0-10.72a3.55,3.55,0,0,1,2.83-3.92c3.4-1.05,6.64-2.59,10.16-3.28a1.93,1.93,0,0,0,1.79-1.83,22.92,22.92,0,0,1,4.08-11.12c.73-1,.28-1.85-.27-2.79-3.1-5.37-6.09-10.8-9.2-16.17a8,8,0,0,1,0-8.68c3.37-5.71,6.68-11.44,10.1-17.12,1.57-2.6,4.18-4,6.88-5.06,10.18-4,20.31-8.18,30.65-11.74,8.72-3,17.07-1.46,24.64,4C121,31.17,124.15,37.47,120.13,43.76Z"/><path class="cls-1" d="M67.6,70.94c5.39-1.74,7.5-6.8,11.62-10.51-2.63-.77-4.94-.94-7-1.92-1.06-.49-1.56.15-2,1a9.42,9.42,0,0,1-3.66,3.77c-3.3,2.14-3.21,2.14-2.31,6C64.76,71.36,65.5,71.61,67.6,70.94Z"/></svg>