<svg id="Layer_1" data-name="Layer 1" xmlns="http://www.w3.org/2000/svg" viewBox="0 0 150.07 150.12"><defs><style>.cls-1{fill:#f48221;}</style></defs><path class="cls-1" d="M144.3,80.93c-.6.35-1,.21-1.3-.4-2.09-3.65-4.27-7.26-6.33-10.93q-9-16.11-18-32.25c-.85-1.54-.86-1.65.65-2.6,3.25-2,6.53-4,9.82-6,1-.6,1-.57,1.65.46,2.7,4.54,5.44,9.05,8,13.64q5,8.82,9.87,17.68a75.13,75.13,0,1,0,1.36,17l-3.85,2.39C145.6,80.31,144.93,80.57,144.3,80.93ZM12.81,80.55c-.33.58-.74.62-1.29.33A81.61,81.61,0,0,1,.07,73.81v-.52c1.69-3.05,3.37-6.1,5.07-9.14Q14.45,47.56,23.77,31c.43-.78,1-1.5,1.45-2.25a.7.7,0,0,1,1.09-.27l11.23,7c.57.36.37.74.13,1.17-2.39,4.38-4.73,8.78-7.18,13.12Q22.17,64.43,13.75,79.1C13.47,79.6,13.09,80,12.81,80.55Zm14.54,20.36a6.56,6.56,0,0,1-4.18-4.31,3.68,3.68,0,0,1,.4-3.4c1.2-1.69,2.4-3.38,3.64-5S30,86.39,31.8,86.94a6.15,6.15,0,0,1,4.28,5.78,7.09,7.09,0,0,1-.66,2q-1.85,2.65-3.92,5.16A3.46,3.46,0,0,1,27.35,100.91Zm7.24,9.69a6.25,6.25,0,0,1-2.17-3.54,3.82,3.82,0,0,1,.6-3.21c3.39-4.6,6.72-9.23,10.18-13.77,2.12-2.79,5-2.8,7.46-.21a7,7,0,0,1,1.89,4.28,9.62,9.62,0,0,1-.86,2.11c-3.36,4.64-6.71,9.3-10.21,13.84C39.67,112.45,36.88,112.54,34.59,110.6Zm11.68,8c-2.57-2.06-3.11-5.09-1.19-7.71,2.66-3.63,5.44-7.17,8.14-10.76A3,3,0,0,1,56.35,99a6.29,6.29,0,0,1,5.36,6,9.47,9.47,0,0,1-.85,2.21C58.3,110.88,55.74,114.51,53,118,51.26,120.31,48.55,120.45,46.27,118.63Zm24.34-1q-2.94,4-6,8a3.31,3.31,0,0,1-2.85,1.17c-2.82-.07-5.76-3.19-5.58-6a3.74,3.74,0,0,1,.62-1.84c1.81-2.6,3.65-5.18,5.57-7.69a3.58,3.58,0,0,1,4.41-1.21A6.53,6.53,0,0,1,71,114.64,3.37,3.37,0,0,1,70.61,117.63ZM127.29,94.4a4.87,4.87,0,0,1-4.69,4.65,20.38,20.38,0,0,1-2.59.08,3,3,0,0,1-1.34-.48c-6.59-3.92-13.16-7.88-19.76-11.78a48.22,48.22,0,0,0-4.7-2.39c-1-.45-1.79,0-1.77,1a1.87,1.87,0,0,0,.77,1.3c2.3,1.53,4.64,3,7,4.47q7.64,4.66,15.32,9.25a1.23,1.23,0,0,1,.71,1.24c0,.61.08,1.21,0,1.82a5.14,5.14,0,0,1-4.21,4.83,7.45,7.45,0,0,1-5.44-.74c-5.85-3.35-11.73-6.66-17.6-10A4.78,4.78,0,0,0,87.8,97a1.81,1.81,0,0,0-1.26.09c-1.23.73-1.27,1.71,0,2.47,2.76,1.73,5.56,3.39,8.36,5.05,3,1.79,6,3.5,9,5.33,2.38,1.46,2.51,2,1.44,4.6a4.79,4.79,0,0,1-3.88,3,8.44,8.44,0,0,1-5-.63c-3.9-1.78-7.78-3.62-11.68-5.43-1.2-.56-2.41-1.11-3.64-1.6-1-.41-1.73-.14-2.08.7s-.09,1.44.88,1.93c3.91,2,7.83,3.94,11.75,5.91.82.42,1.62.87,2.44,1.29.49.25.65.55.26,1-2,2.39-4.29,4.24-7.65,4.25a40,40,0,0,1-14.16-2.85,5.88,5.88,0,0,1-.64-.36c2.24-3.13,3.27-6.38,1.41-10-1.77-3.47-4.74-5-8.58-5.43a9,9,0,0,0-2.18-7.35,8.67,8.67,0,0,0-7-3.29c0-.72,0-1.4,0-2.08A8.92,8.92,0,0,0,44.92,85a6.68,6.68,0,0,0-4,2.55c-.63.77-1.22,1.58-1.91,2.47-.25-.49-.45-.86-.64-1.24a9.72,9.72,0,0,0-2.94-3.58,8,8,0,0,0-10.22.17c-.94.78-1,.73-1.73-.21-1.66-2-3.31-4.07-5-6.08a.88.88,0,0,1-.14-1.2q9.65-17,19.28-34.11c.11-.19.24-.38.48-.74C42.69,46.8,48.36,47.22,54,48.27c-.4.65-.67,1.11-1,1.56-2,3-4.08,6-6.06,9.05a13.34,13.34,0,0,0-2.32,7.31,4.67,4.67,0,0,0,4.3,4.54c4.85.39,9.06-1.24,13-3.91a35.08,35.08,0,0,0,7.64-7.6,3.51,3.51,0,0,1,1.51-1c1.35-.49,2.74-.89,4.13-1.26a2,2,0,0,1,1.22.11A223.11,223.11,0,0,1,111.78,79c4.39,3.32,8.69,6.75,13,10.18A5.75,5.75,0,0,1,127.29,94.4Zm9.59-16.18c-2.48,2.2-4.89,4.46-7.4,6.63a4.72,4.72,0,0,1-2.58,1.44c-.79,0-1.59-1-2.34-1.6A272.74,272.74,0,0,0,96.21,64.45c-5.88-3.58-12-6.7-18-10.07A4.84,4.84,0,0,0,73.81,54c-1.81.68-3.69,1.15-5.51,1.8a2.55,2.55,0,0,0-1.09,1,28,28,0,0,1-9,8.59,16.26,16.26,0,0,1-7.37,2.27,6.17,6.17,0,0,1-.86,0c-1.56-.1-1.92-.54-2-2.08a6.65,6.65,0,0,1,1.17-4.16c3.64-5.27,7.28-10.52,10.89-15.81a7.46,7.46,0,0,1,4.57-3,72.53,72.53,0,0,1,15.66-2.05c1.12,0,2.25,0,3.37,0a61.8,61.8,0,0,1,18.16,2c2.43.57,4.92.94,7.39,1.35a16.82,16.82,0,0,0,6.76-.58c1.82-.44,1.84-.42,2.74,1.17Q127.88,60.65,137,76.82C137.36,77.39,137.4,77.75,136.88,78.22Z"/></svg>