<svg id="Layer_1" data-name="Layer 1" xmlns="http://www.w3.org/2000/svg" viewBox="0 0 150.12 150.12"><defs><style>.cls-1{fill:#f48221;}</style></defs><path class="cls-1" d="M54.43,75.35c1.44.27,2.24.72,2,2.39-.17,1,.44,1.65,1.53,1.63s1.4-.67,1.42-1.62a3.62,3.62,0,0,0,0-.57c-.16-1,.31-1.48,1.26-1.89a4.52,4.52,0,0,0,3-4.18,3.84,3.84,0,0,0-2.2-3.89c-1.55-.76-3.2-1.32-4.73-2.11-.51-.26-1.15-1-1.1-1.46a2.44,2.44,0,0,1,1.19-1.59c1.62-.86,2.72-.18,3.38,1.65a2.08,2.08,0,0,0,1.55,1.07c.42,0,1-.7,1.3-1.19.18-.27.06-.75.07-.82,0-2.46-.46-3.1-2.61-3.58-.77-.17-1.22-.37-1.16-1.26.08-1-.29-1.84-1.5-1.81S56.28,57,56.38,58c.08.81-.26,1.16-1,1.51a4.81,4.81,0,0,0-2.81,3.28c-.55,2.4.46,4,3.25,5.16,1.24.51,2.54.91,3.72,1.53a1.68,1.68,0,0,1,.2,3A3.3,3.3,0,0,1,54.84,71a2,2,0,0,0-1.28-1.09,1.69,1.69,0,0,0-1.38.74A3.19,3.19,0,0,0,54.43,75.35Z"/><path class="cls-1" d="M63.21,46.62c.82.17,1.45.34,1.4,1.41,0,.31.52.65.8,1,.31-.3.86-.6.87-.92a1.77,1.77,0,0,1,1.08-1.63,2.61,2.61,0,0,0-.11-4.8c-.72-.38-1.53-.59-2.22-1-.38-.23-.89-.79-.82-1.08a1.49,1.49,0,0,1,1.07-.91,2.73,2.73,0,0,1,1.42.61,11.07,11.07,0,0,1,1.22,1l.93-1.62c-.52-.55-.88-1.23-1.42-1.45-.7-.29-1.1-.58-1.21-1.36a1.05,1.05,0,0,0-.79-.62c-.28,0-.57.4-.8.68a9.81,9.81,0,0,1-1.19,1.57c-1.76,1.44-1.6,3.53.42,4.54a13.81,13.81,0,0,1,1.84.8A7.74,7.74,0,0,1,67,44.29a5.8,5.8,0,0,1-2,.88c-.45,0-.91-.74-1.38-1.13a2.53,2.53,0,0,0-.88-.56c-.18,0-.52.23-.64.45A1.81,1.81,0,0,0,63.21,46.62Z"/><path class="cls-1" d="M81,64.29c.41.1.82.23,1.25.36,0,.44.06.82.06,1.2,0,.85.15,1.59,1.19,1.6s1.28-.76,1.17-1.59c-.12-1,.34-1.39,1.2-1.78a3.74,3.74,0,0,0,2.33-3.37,3.39,3.39,0,0,0-2.23-3.38c-1-.46-2.07-.8-3-1.35a6.26,6.26,0,0,1-1.29-1.45c.59-.47,1.13-1.16,1.8-1.34a1.42,1.42,0,0,1,1.88,1.25c.11.47.85.8,1.29,1.19.38-.47,1-.9,1.09-1.41.31-2-.17-2.58-2.15-3.23a1.46,1.46,0,0,1-.84-1c-.09-.83-.32-1.45-1.22-1.46s-1.16.59-1.25,1.43a1.91,1.91,0,0,1-.77,1.3,4.07,4.07,0,0,0-2.35,4c.11,1.8,1.53,2.41,2.92,3a22.59,22.59,0,0,1,2.77,1.18,1.77,1.77,0,0,1,.78,1.35,2,2,0,0,1-1,1.27c-1.46.8-2.9.14-3.64-1.41a1.16,1.16,0,0,0-2.27.25C78.26,63.08,78.76,63.77,81,64.29Z"/><path class="cls-1" d="M75.06,0a75.06,75.06,0,1,0,75.06,75.06A75.07,75.07,0,0,0,75.06,0ZM85.75,47.2A11.61,11.61,0,0,1,95.11,59,11.83,11.83,0,0,1,83.4,70.33c-1.3-.29-2.64-.49-3.91-.89-2-.62-3.24-1.66-3.36-4.15A13.36,13.36,0,0,0,73,57.68a2.67,2.67,0,0,1-.46-2.77A11.7,11.7,0,0,1,85.75,47.2ZM65.5,34.07A8.49,8.49,0,1,1,57,42.47,8.56,8.56,0,0,1,65.5,34.07ZM58.09,54.19a14.29,14.29,0,1,1-14.43,14.2A14.43,14.43,0,0,1,58.09,54.19Zm66.27,53.41c-7-1.22-13.84-.18-20.61,1.87-8.54,2.6-17.19,4.85-25.72,7.49a23.16,23.16,0,0,1-16.43-.9q-21-8.85-42.12-17.64a11.88,11.88,0,0,1-2.6-1.52c-2.65-2-2.27-4.75.81-6a12.4,12.4,0,0,1,7.51-.62c10,2.37,19.88,4.79,29.91,7.21A39.7,39.7,0,0,0,53,101c-1.11,2.29-.56,4.58,1.73,5.67a19.88,19.88,0,0,0,6.55,1.9c7.16.69,14.11-.76,21-2.77-2.27.18-4.54.46-6.81.52-4.85.12-9.7.2-14.55.12a9.09,9.09,0,0,1-3.83-1.11c-2.62-1.34-2.88-4.36-.39-5.88A26.37,26.37,0,0,1,63,96.76c8.64-2.56,17.34-5,26-7.47a51.68,51.68,0,0,1,21-1.8c7.11.9,14.17,2,21.26,3.09a9.3,9.3,0,0,1,1,.27v18C129.55,108.45,127,108.05,124.36,107.6Z"/><path class="cls-1" d="M63.1,62.77c0,.07.11.55-.07.82-.34.49-.88,1.21-1.3,1.19a2.08,2.08,0,0,1-1.55-1.07c-.66-1.83-1.76-2.51-3.38-1.65a2.44,2.44,0,0,0-1.19,1.59c0,.46.59,1.2,1.1,1.46,1.53.79,3.18,1.35,4.73,2.11a3.84,3.84,0,0,1,2.2,3.89,4.52,4.52,0,0,1-3,4.18c-1,.41-1.42.86-1.26,1.89a3.62,3.62,0,0,1,0,.57c0,1-.38,1.6-1.42,1.62s-1.7-.63-1.53-1.63c.28-1.67-.52-2.12-2-2.39a3.19,3.19,0,0,1-2.25-4.73,1.69,1.69,0,0,1,1.38-.74A2,2,0,0,1,54.84,71a3.3,3.3,0,0,0,4.93,1.53,1.68,1.68,0,0,0-.2-3c-1.18-.62-2.48-1-3.72-1.53-2.79-1.14-3.8-2.76-3.25-5.16a4.81,4.81,0,0,1,2.81-3.28c.71-.35,1.05-.7,1-1.51-.1-1,.25-1.84,1.45-1.87s1.58.76,1.5,1.81c-.06.89.39,1.09,1.16,1.26C62.64,59.67,63.11,60.31,63.1,62.77Z"/><path class="cls-1" d="M82.22,64.65c-.43-.13-.84-.26-1.25-.36-2.21-.52-2.71-1.21-2.26-3.42A1.16,1.16,0,0,1,81,60.62c.74,1.55,2.18,2.21,3.64,1.41a2,2,0,0,0,1-1.27,1.77,1.77,0,0,0-.78-1.35A22.59,22.59,0,0,0,82,58.23c-1.39-.6-2.81-1.21-2.92-3a4.07,4.07,0,0,1,2.35-4,1.91,1.91,0,0,0,.77-1.3c.09-.84.35-1.44,1.25-1.43s1.13.63,1.22,1.46a1.46,1.46,0,0,0,.84,1c2,.65,2.46,1.22,2.15,3.23-.08.51-.71.94-1.09,1.41-.44-.39-1.18-.72-1.29-1.19a1.42,1.42,0,0,0-1.88-1.25c-.67.18-1.21.87-1.8,1.34A6.26,6.26,0,0,0,82.93,56c.94.55,2,.89,3,1.35a3.39,3.39,0,0,1,2.23,3.38,3.74,3.74,0,0,1-2.33,3.37c-.86.39-1.32.78-1.2,1.78.11.83-.12,1.59-1.17,1.59s-1.2-.75-1.19-1.6C82.28,65.47,82.24,65.09,82.22,64.65Z"/><path class="cls-1" d="M68.85,38.7l-.93,1.62a11.07,11.07,0,0,0-1.22-1,2.73,2.73,0,0,0-1.42-.61,1.49,1.49,0,0,0-1.07.91c-.07.29.44.85.82,1.08.69.41,1.5.62,2.22,1a2.61,2.61,0,0,1,.11,4.8,1.77,1.77,0,0,0-1.08,1.63c0,.32-.56.62-.87.92-.28-.32-.81-.66-.8-1,0-1.07-.58-1.24-1.4-1.41a1.81,1.81,0,0,1-1.12-2.69c.12-.22.46-.49.64-.45a2.53,2.53,0,0,1,.88.56c.47.39.93,1.14,1.38,1.13a5.8,5.8,0,0,0,2-.88,7.74,7.74,0,0,0-1.3-1.43,13.81,13.81,0,0,0-1.84-.8c-2-1-2.18-3.1-.42-4.54A9.81,9.81,0,0,0,64.63,36c.23-.28.52-.67.8-.68a1.05,1.05,0,0,1,.79.62c.11.78.51,1.07,1.21,1.36C68,37.47,68.33,38.15,68.85,38.7Z"/></svg>